<svg width="71" height="32" viewBox="0 0 71 32" fill="none" xmlns="http://www.w3.org/2000/svg">
<path d="M36.351 8.87609L35.5902 13.3142L35.544 13.5848H6.35486C6.35486 12.285 6.78037 11.1079 7.47182 10.2545C8.16097 9.40339 9.11374 8.87378 10.1683 8.87378H36.3487L36.351 8.87609Z" fill="#E14D2A"/>
<path d="M34.8274 17.7546L34.7812 18.0252L34.0203 22.4656H12.717C12.717 21.1659 13.1426 19.9887 13.834 19.1353C14.5231 18.2842 15.4759 17.7546 16.5304 17.7546H34.8251H34.8274Z" fill="#E14D2A"/>
<path d="M33.2704 26.6307L32.461 31.3394H19.0459C19.0459 30.0397 19.4506 28.8625 20.105 28.0091C20.7595 27.1557 21.6614 26.6284 22.6604 26.6284H33.2704V26.6307Z" fill="#E14D2A"/>
<path d="M37.845 0L37.0356 4.70867H0C0 3.40893 0.520325 2.23176 1.3621 1.37837C2.20387 0.527297 3.3694 0 4.65287 0H37.845Z" fill="#E14D2A"/>
<path d="M65.545 13.3143L58.7715 4.70867L55.0622 0H41.2955L40.4861 4.70867L39.0084 13.3143L38.199 18.0229L36.7213 26.6285L35.9119 31.3372H67.7304L68.5397 26.6285L70.0175 18.0229L70.6187 14.5261C70.7274 13.8924 70.2395 13.3143 69.5966 13.3143H65.5473H65.545ZM45.2639 4.70867H52.7774L59.5508 13.3143H43.7861L45.2639 4.70867ZM63.7597 26.6285H41.499L42.9767 18.0229H65.2397L63.7597 26.6285Z" fill="white"/>
</svg>
